<svg width="32" height="32" viewBox="0 0 32 32" fill="none" xmlns="http://www.w3.org/2000/svg">
<rect x="0.5" y="0.5" width="31" height="31" rx="15.5" stroke="#1D1D1D"/>
<path fill-rule="evenodd" clip-rule="evenodd" d="M23.2465 10.3811C24.0329 10.5935 24.651 11.2131 24.8599 11.9985C25.24 13.424 25.24 16.4 25.24 16.4C25.24 16.4 25.24 19.376 24.8599 20.8015C24.6481 21.5898 24.03 22.2095 23.2465 22.4189C21.8247 22.8 16.12 22.8 16.12 22.8C16.12 22.8 10.4182 22.8 8.99346 22.4189C8.2071 22.2065 7.58904 21.5869 7.38012 20.8015C7 19.376 7 16.4 7 16.4C7 16.4 7 13.424 7.38012 11.9985C7.59194 11.2102 8.21 10.5905 8.99346 10.3811C10.4182 10 16.12 10 16.12 10C16.12 10 21.8247 10 23.2465 10.3811ZM19.0362 16.4L14.2977 19.1433V13.6567L19.0362 16.4Z" fill="#1D1D1D"/>
</svg>
