<?xml version="1.0" encoding="utf-8"?>
<!-- Generator: Adobe Illustrator 25.1.0, SVG Export Plug-In . SVG Version: 6.00 Build 0)  -->
<svg version="1.1" id="Layer_1" xmlns="http://www.w3.org/2000/svg" xmlns:xlink="http://www.w3.org/1999/xlink" x="0px" y="0px"
	 viewBox="0 0 150 49" style="enable-background:new 0 0 150 49;" xml:space="preserve">
<style type="text/css">
	.st0{fill:#95BF47;}
	.st1{fill:#5E8E3E;}
	.st2{fill:#FFFFFF;}
	.st3{fill:#280F44;}
	.st4{fill:#DF0067;}
	.st5{fill:#B0DEEC;}
	.st6{fill:#5B5957;}
	.st7{fill:#B19975;}
	.st8{fill:#C8B89F;}
	.st9{fill:#826C57;}
	.st10{fill:#957B63;}
	.st11{fill:none;}
	.st12{fill:#C7C6C7;}
	.st13{fill:#71706F;}
	.st14{fill:#9C9B9B;}
	.st15{fill:#E9E4E3;}
	.st16{fill:#F9B233;}
	.st17{fill:none;stroke:#000000;stroke-width:0;stroke-linecap:round;stroke-linejoin:round;}
	.st18{fill:#A12553;}
	.st19{fill:#1B509B;}
	.st20{fill:#EA2227;}
	.st21{fill:#80AF41;}
	.st22{fill:#EDCC3C;}
	.st23{fill:#E07A32;}
	.st24{fill:#4284C1;}
	.st25{fill:#80AF41;stroke:#80AF41;stroke-width:2.154971e-02;stroke-miterlimit:10;}
	.st26{fill:#5952FD;}
	.st27{fill:#29265B;}
	.st28{fill-rule:evenodd;clip-rule:evenodd;fill:#9B5C8F;}
	.st29{fill-rule:evenodd;clip-rule:evenodd;fill:url(#SVGID_1_);}
	.st30{fill-rule:evenodd;clip-rule:evenodd;fill:url(#SVGID_2_);}
	.st31{fill-rule:evenodd;clip-rule:evenodd;fill:url(#SVGID_3_);}
	.st32{fill-rule:evenodd;clip-rule:evenodd;fill:url(#SVGID_4_);}
	.st33{fill-rule:evenodd;clip-rule:evenodd;fill:url(#SVGID_5_);}
	.st34{fill-rule:evenodd;clip-rule:evenodd;fill:url(#SVGID_6_);}
	.st35{fill-rule:evenodd;clip-rule:evenodd;fill:url(#SVGID_7_);}
	.st36{fill-rule:evenodd;clip-rule:evenodd;fill:url(#SVGID_8_);}
	.st37{fill:url(#SVGID_9_);}
	.st38{fill:url(#SVGID_10_);}
	.st39{fill:url(#SVGID_11_);}
	.st40{fill:#A6C544;}
	.st41{fill:#076964;}
	.st42{fill:#404041;}
</style>
<g>
	<g>
		<path class="st41" d="M52.2,12c-1.9-1.6-4.4-2.6-7.1-2.6c-6.2,0-11.2,5-11.2,11.2c0,0.5,0,1.1,0.1,1.6C40.7,20.2,47.3,17,52.2,12z
			"/>
		<path class="st41" d="M37.9,29.2c2.8-1.8,5.5-3.8,8.1-5.9c3.1-2.5,6.1-5.2,8.7-8.2c-0.3-0.6-0.7-1.1-1.1-1.6
			c-0.5,0.5-1.1,1.1-1.6,1.6c-5,4.4-11.1,7.4-17.5,9.2C35.2,26.2,36.4,27.9,37.9,29.2z"/>
		<path class="st41" d="M52.2,20.8c-3.6,3.3-7.5,6.3-11.5,9c-0.3,0.2-0.6,0.4-0.9,0.6c1.6,0.9,3.4,1.3,5.3,1.3
			c6.2,0,11.2-5,11.2-11.2c0-1.2-0.2-2.3-0.5-3.4C54.6,18.4,53.4,19.6,52.2,20.8z"/>
	</g>
	<g>
		<path class="st42" d="M66.6,34.3c-0.4-0.4-0.9-0.5-1.3-0.5c-1.2,0-1.8,0.9-1.8,1.8c0,1,0.6,1.8,1.8,1.8c0.4,0,0.9-0.2,1.3-0.5
			v-1.2h-1.4v-0.3h1.7v1.5c-0.4,0.4-0.9,0.7-1.6,0.7c-1.4,0-2.1-1-2.1-2.1c0-1.3,0.9-2.1,2.1-2.1c0.5,0,1.1,0.2,1.5,0.6L66.6,34.3z"
			/>
		<path class="st42" d="M68,33.6v4.1h-0.3v-4.1H68z"/>
		<path class="st42" d="M68.6,36.2c0-0.9,0.7-1.5,1.5-1.5c0.8,0,1.5,0.6,1.5,1.5c0,0.9-0.7,1.5-1.5,1.5
			C69.3,37.7,68.6,37.2,68.6,36.2z M71.3,36.2c0-0.8-0.5-1.2-1.2-1.2c-0.7,0-1.2,0.5-1.2,1.2c0,0.8,0.5,1.2,1.2,1.2
			C70.8,37.4,71.3,37,71.3,36.2z"/>
		<path class="st42" d="M72.5,33.6v1.8c0.2-0.5,0.7-0.7,1.2-0.7c0.8,0,1.5,0.5,1.5,1.5c0,1-0.6,1.5-1.5,1.5c-0.5,0-1-0.2-1.2-0.7
			v0.6h-0.3v-4.1H72.5z M72.5,36.2c0,0.7,0.5,1.2,1.2,1.2c0.7,0,1.2-0.4,1.2-1.2c0-0.8-0.5-1.2-1.2-1.2C73,35,72.5,35.5,72.5,36.2z"
			/>
		<path class="st42" d="M78.7,34.8c0,1,0,1.9,0,2.9h-0.3v-0.6c-0.3,0.5-0.7,0.7-1.2,0.7c-0.8,0-1.5-0.6-1.5-1.5
			c0-0.9,0.7-1.5,1.5-1.5c0.5,0,0.9,0.2,1.2,0.7v-0.6H78.7z M76,36.2c0,0.7,0.5,1.2,1.2,1.2c1.6,0,1.6-2.4,0-2.4
			C76.6,35,76,35.5,76,36.2z"/>
		<path class="st42" d="M79.8,33.6v4.1h-0.3v-4.1H79.8z"/>
		<path class="st42" d="M83.4,33.9h-1.5v-0.3h3.3v0.3h-1.5v3.8h-0.3V33.9z"/>
		<path class="st42" d="M86,34.8l0,0.5c0.2-0.4,0.6-0.5,1-0.5c0.2,0,0.4,0.1,0.6,0.2l-0.1,0.2C87.4,35.1,87.2,35,87,35
			c-0.5,0-1,0.4-1,1v1.7h-0.3v-2.9H86z"/>
		<path class="st42" d="M90.4,37.7v-0.5c-0.2,0.4-0.6,0.6-1,0.6c-0.8,0-1.3-0.5-1.3-1.3v-1.7h0.3v1.7c0,0.7,0.4,1,1,1
			c0.6,0,1-0.5,1-1.1v-1.6h0.3v2.9H90.4z"/>
		<path class="st42" d="M93.5,35.3C93.2,35,92.9,35,92.5,35c-0.5,0-0.9,0.2-0.9,0.5c0,0.4,0.5,0.5,0.9,0.5c0.5,0.1,1.2,0.2,1.2,0.9
			c0,0.6-0.7,0.8-1.2,0.8c-0.5,0-1-0.2-1.3-0.6l0.2-0.2c0.2,0.3,0.7,0.5,1.1,0.5c0.4,0,0.9-0.1,0.9-0.6c0-0.4-0.5-0.5-0.9-0.6
			c-0.6-0.1-1.1-0.2-1.1-0.8c0-0.6,0.6-0.8,1.2-0.8c0.4,0,0.8,0.1,1.1,0.4L93.5,35.3z"/>
		<path class="st42" d="M95.1,33.9v0.9h1V35h-1v1.8c0,0.4,0.1,0.7,0.5,0.7c0.1,0,0.3,0,0.4-0.1l0.1,0.2c-0.2,0.1-0.4,0.1-0.5,0.1
			c-0.6,0-0.8-0.4-0.8-0.9V35h-0.6v-0.2h0.6v-0.8L95.1,33.9z"/>
		<path class="st42" d="M96.5,36.2c0-0.9,0.7-1.5,1.5-1.5c0.8,0,1.5,0.5,1.4,1.6h-2.6c0.1,0.7,0.6,1.1,1.2,1.1c0.4,0,0.8-0.2,1-0.4
			l0.2,0.2c-0.3,0.4-0.8,0.6-1.3,0.6C97.2,37.7,96.5,37.2,96.5,36.2z M99.2,36.1c0-0.7-0.5-1.1-1.2-1.1c-0.6,0-1.1,0.4-1.2,1.1H99.2
			z"/>
		<path class="st42" d="M103,33.6v4.1h-0.3V37c-0.2,0.4-0.7,0.7-1.2,0.7c-0.8,0-1.5-0.5-1.5-1.5c0-1,0.6-1.5,1.5-1.5
			c0.5,0,1,0.2,1.2,0.7v-1.8H103z M100.3,36.2c0,0.8,0.5,1.2,1.2,1.2c0.7,0,1.2-0.5,1.2-1.2c0-0.7-0.5-1.2-1.2-1.2
			C100.9,35,100.3,35.4,100.3,36.2z"/>
		<path class="st42" d="M108.2,34.4c-0.3-0.5-0.8-0.6-1.2-0.6c-0.5,0-1.2,0.2-1.2,0.8c0,0.5,0.6,0.6,1.3,0.8
			c0.8,0.2,1.6,0.3,1.6,1.2c0,0.9-0.9,1.2-1.6,1.2c-0.6,0-1.4-0.3-1.7-0.9l0.3-0.1c0.3,0.5,0.9,0.7,1.4,0.7c0.5,0,1.3-0.1,1.3-0.9
			c0-0.6-0.7-0.8-1.4-0.9c-0.8-0.1-1.5-0.3-1.5-1.1c0-0.9,0.9-1.1,1.6-1.1c0.6,0,1.1,0.1,1.5,0.7L108.2,34.4z"/>
		<path class="st42" d="M109.6,33.8c0,0.3-0.5,0.3-0.5,0C109.1,33.5,109.6,33.5,109.6,33.8z M109.2,34.8v2.9h0.3v-2.9H109.2z"/>
		<path class="st42" d="M112.6,34.7l0.2,0.2l-0.3,0.3c0.2,0.2,0.4,0.5,0.4,1c0,0.5-0.3,1-0.8,1.2c0.5,0.2,0.8,0.5,0.8,1
			c0,0.8-0.6,1.2-1.4,1.2c-0.8,0-1.4-0.4-1.4-1.2h0.3c0,0.6,0.5,0.9,1.1,0.9c0.6,0,1.1-0.3,1.1-0.9c0-0.6-0.6-0.9-1.1-0.9
			c-0.8,0-1.4-0.6-1.4-1.4c0-0.9,0.6-1.4,1.4-1.4c0.3,0,0.6,0.1,0.8,0.3L112.6,34.7z M110.4,36.1c0,0.6,0.4,1.1,1.1,1.1
			c0.6,0,1.1-0.5,1.1-1.1c0-0.7-0.5-1.1-1.1-1.1C110.9,35,110.4,35.4,110.4,36.1z"/>
		<path class="st42" d="M113.8,34.8v0.5c0.2-0.4,0.6-0.6,1-0.6c0.8,0,1.3,0.5,1.3,1.3v1.7h-0.3V36c0-0.7-0.4-1-1-1
			c-0.6,0-1,0.5-1,1.1v1.6h-0.3v-2.9H113.8z"/>
	</g>
	<g>
		<path class="st41" d="M78.5,15.4c-1.3-1.3-3.3-2-5-2c-4.2,0-6.8,3.2-6.8,7.2c0,3.2,1.9,6.6,6.8,6.6c1.5,0,2.9-0.3,4.4-1.6v-3.5h-5
			v-3.3h8.4v8.3c-1.9,2.2-4.4,3.5-7.8,3.5c-7.4,0-10.4-4.8-10.4-10c0-5.5,3.4-10.6,10.4-10.6c2.6,0,5.3,1,7.3,3L78.5,15.4z"/>
		<path class="st41" d="M88.3,14H82v-3.4c5.7,0,10.5,0,16.1,0V14H92v16.3h-3.7V14z"/>
		<path class="st41" d="M112.5,15.3c-0.7-1.1-2.5-2.2-4.7-2.2c-2.7,0-4.1,1.1-4.1,2.6c0,1.7,2,2.2,4.4,2.5c4.1,0.5,7.9,1.6,7.9,6.2
			c0,4.4-3.9,6.2-8.2,6.2c-4,0-7.1-1.2-8.5-4.8l3.1-1.6c0.9,2.2,3.1,3.1,5.5,3.1c2.3,0,4.5-0.8,4.5-2.9c0-1.8-1.9-2.6-4.5-2.9
			c-4-0.5-7.7-1.5-7.7-5.9c0-4,4-5.7,7.6-5.7c3.1,0,6.2,0.9,7.7,3.9L112.5,15.3z"/>
	</g>
</g>
</svg>
