<svg width="174" height="32" viewBox="0 0 174 32" fill="none" xmlns="http://www.w3.org/2000/svg">
<path d="M73.0993 15.7888H67.8729L66.0018 24.6381H60.8916L66.1179 0.0258789H76.8384C79.3096 0.0258789 81.1453 0.661425 82.3422 1.9293C83.5391 3.19717 83.8584 5.16188 83.3003 7.82344C82.6777 10.7302 81.5034 12.782 79.7774 13.9854C78.0546 15.1855 75.8286 15.7888 73.0993 15.7888ZM75.1027 4.30051H70.3119L68.7763 11.5464H73.5671C74.7801 11.5464 75.7867 11.2528 76.59 10.6624C77.39 10.0721 77.9256 9.13648 78.1901 7.8557C78.4708 6.57493 78.3289 5.66193 77.7707 5.11672C77.2062 4.57473 76.3157 4.30051 75.1027 4.30051Z" fill="white"/>
<path d="M91.6629 13.569C92.5759 13.4561 93.2373 13.3174 93.6502 13.1496C94.3825 12.8625 94.8181 12.4076 94.9503 11.7979C95.1084 11.0526 94.9568 10.5332 94.5019 10.2493C94.047 9.96541 93.3147 9.82668 92.3146 9.82668C91.1919 9.82668 90.3337 10.1041 89.7434 10.659C89.3304 11.072 88.9917 11.6269 88.7239 12.3269H84.1331C84.5783 10.7365 85.301 9.42665 86.3043 8.40396C87.9077 6.80057 90.2402 6.00049 93.3018 6.00049C95.2955 6.00049 96.9796 6.39731 98.3604 7.18771C99.7411 7.97811 100.196 9.46858 99.7315 11.6624L97.9442 20.0084C97.8216 20.5891 97.6893 21.2891 97.5474 22.1118C97.4441 22.7344 97.4506 23.1571 97.5571 23.3797C97.6635 23.6023 97.8539 23.7862 98.1313 23.9313L97.9958 24.6346H92.8211C92.7533 24.2669 92.7275 23.9217 92.7372 23.599C92.7469 23.2764 92.7824 22.9087 92.8372 22.4989C92.0242 23.2119 91.1403 23.8184 90.1821 24.3185C89.0239 24.9089 87.8012 25.2024 86.5108 25.2024C84.8622 25.2024 83.6073 24.7314 82.733 23.7894C81.8587 22.8506 81.6038 21.5182 81.9716 19.7922C82.4491 17.5565 83.6556 15.937 85.5946 14.9337C86.6527 14.3884 88.1238 13.9981 90.0176 13.7658L91.6629 13.569ZM94.0825 15.7886C93.7502 15.9789 93.4147 16.1273 93.0824 16.2467C92.7469 16.3628 92.3017 16.4757 91.7468 16.5758L90.6435 16.7758C89.5982 16.9532 88.8304 17.1726 88.34 17.4275C87.5141 17.8598 87.0108 18.534 86.8205 19.447C86.6398 20.26 86.7431 20.8439 87.1141 21.2053C87.4883 21.5666 87.9948 21.7505 88.6368 21.7505C89.6627 21.7505 90.6693 21.4504 91.6597 20.8472C92.6501 20.2471 93.3341 19.1502 93.7115 17.5597L94.0825 15.7886Z" fill="white"/>
<path d="M0 31.932C0.238734 31.9481 12.8626 31.961 37.436 31.9707L38.2394 28.1413L0.800081 28.1251L0 31.932Z" fill="white"/>
<path d="M116.205 6.43933L109.595 19.8633L108.475 6.43933H103.181L105.82 25.4413C105.843 25.5735 105.672 25.9413 105.304 26.5414C104.936 27.1414 104.591 27.5382 104.268 27.7254C103.936 27.9254 103.552 28.0512 103.116 28.1093C102.681 28.1641 102.236 28.1802 101.781 28.1609L60.0992 28.1448L59.2959 31.9742C85.2824 31.9839 101.381 31.9903 101.513 31.9903C101.768 31.9968 102.11 32 102.533 32C104.636 32 106.126 31.5838 107.001 30.7547C107.872 29.9256 109.275 27.7867 111.214 24.3379L121.263 6.43933H116.205Z" fill="white"/>
<path d="M13.8304 15.7597H8.6041L6.73295 24.6089H1.62598L6.85231 0H17.5695C20.0407 0 21.8732 0.635546 23.0701 1.90342C24.267 3.17451 24.5896 5.136 24.0315 7.79756C23.4088 10.7011 22.2345 12.7561 20.5085 13.9595C18.7826 15.1596 16.5565 15.7597 13.8304 15.7597ZM15.8339 4.27463H11.0431L9.5042 11.5205H14.2982C15.5113 11.5205 16.5178 11.2269 17.3211 10.6366C18.1212 10.0462 18.6567 9.1106 18.9245 7.83305C19.202 6.55228 19.0568 5.63928 18.4954 5.09406C17.9309 4.54562 17.0469 4.27463 15.8339 4.27463Z" fill="white"/>
<path d="M32.3905 13.54C33.3035 13.4303 33.9649 13.2884 34.3778 13.1239C35.1134 12.8335 35.5457 12.3818 35.6779 11.7721C35.836 11.0269 35.6844 10.5139 35.2295 10.23C34.7714 9.94612 34.0423 9.80094 33.0422 9.80094C31.9163 9.80094 31.0613 10.0784 30.471 10.6365C30.0612 11.0495 29.7225 11.6044 29.4515 12.3076H24.8607C25.3059 10.7139 26.0318 9.40735 27.0319 8.38467C28.6353 6.78128 30.9678 5.9812 34.0262 5.9812C36.0199 5.9812 37.704 6.37479 39.0847 7.16519C40.4655 7.95559 40.9204 9.44607 40.4526 11.6398L38.6653 19.9891C38.5428 20.5666 38.4105 21.2698 38.2653 22.0925C38.1653 22.7152 38.1653 23.141 38.2718 23.3604C38.3782 23.583 38.5718 23.7669 38.8492 23.9121L38.717 24.6121H33.539C33.4713 24.2443 33.4455 23.9024 33.4551 23.5765C33.4648 23.2539 33.5003 22.8861 33.5552 22.4732C32.7422 23.1862 31.8582 23.7927 30.9 24.2927C29.7419 24.8831 28.5192 25.1767 27.2287 25.1767C25.5801 25.1767 24.3155 24.7089 23.4412 23.7669C22.5669 22.8281 22.3153 21.4925 22.6863 19.7665C23.1638 17.5275 24.3703 15.908 26.3093 14.9079C27.3674 14.3627 28.8418 13.9723 30.7323 13.7401L32.3905 13.54ZM34.8101 15.7596C34.4746 15.95 34.1423 16.1048 33.81 16.221C33.4745 16.3371 33.0293 16.4436 32.4744 16.5436L31.3711 16.7436C30.3258 16.921 29.558 17.1404 29.0676 17.3953C28.2449 17.8308 27.7352 18.5018 27.5481 19.4148C27.3707 20.2278 27.4642 20.8182 27.8384 21.1795C28.2094 21.5408 28.7224 21.7183 29.3676 21.7183C30.3903 21.7183 31.3969 21.4183 32.3873 20.8182C33.3777 20.2181 34.0617 19.1212 34.4423 17.5275L34.8101 15.7596Z" fill="white"/>
<path d="M41.9084 28.0996L42.5084 28.1351C42.9665 28.1576 43.4117 28.1415 43.844 28.0834C44.2763 28.0286 44.6635 27.8996 44.9958 27.6995C45.3184 27.5092 45.6636 27.1156 46.0314 26.5123C46.3991 25.9123 46.5733 25.5445 46.5475 25.409L43.9086 6.41028H49.2026L50.3221 19.8342L56.9325 6.41028H61.991L51.9384 24.3089C50.0027 27.7608 48.5929 29.903 47.7186 30.7321C46.8443 31.5612 45.3571 31.9742 43.2537 31.9742C42.831 31.9742 42.4923 31.9742 42.2342 31.9677C41.9793 31.9613 41.2696 31.9387 40.7695 31.9064L41.9084 28.0996Z" fill="white"/>
<line x1="129.764" y1="6" x2="129.764" y2="26" stroke="white"/>
<path d="M141.256 21H139.131L139.146 19.5078H141.256C141.855 19.5078 142.344 19.3984 142.725 19.1797C143.105 18.9557 143.383 18.6328 143.561 18.2109C143.743 17.7891 143.834 17.276 143.834 16.6719V16.2188C143.834 15.7656 143.782 15.3646 143.678 15.0156C143.579 14.6615 143.425 14.3646 143.217 14.125C143.008 13.8854 142.743 13.7057 142.42 13.5859C142.102 13.4609 141.725 13.3984 141.287 13.3984H139.092V11.8984H141.287C141.938 11.8984 142.535 12.0026 143.076 12.2109C143.623 12.4193 144.092 12.7161 144.482 13.1016C144.878 13.4818 145.183 13.9375 145.396 14.4688C145.615 15 145.725 15.5885 145.725 16.2344V16.6719C145.725 17.5312 145.535 18.2865 145.154 18.9375C144.779 19.5885 144.256 20.0964 143.584 20.4609C142.917 20.8203 142.141 21 141.256 21ZM140.193 11.8984V21H138.311V11.8984H140.193ZM155.201 16.2344V16.6719C155.201 17.3646 155.102 17.9844 154.904 18.5312C154.706 19.0781 154.425 19.5469 154.061 19.9375C153.701 20.3229 153.269 20.6172 152.764 20.8203C152.258 21.0234 151.701 21.125 151.092 21.125C150.482 21.125 149.925 21.0234 149.42 20.8203C148.915 20.6172 148.477 20.3229 148.107 19.9375C147.738 19.5469 147.451 19.0781 147.248 18.5312C147.05 17.9844 146.951 17.3646 146.951 16.6719V16.2344C146.951 15.5417 147.05 14.9219 147.248 14.375C147.451 13.8281 147.735 13.3594 148.1 12.9688C148.464 12.5781 148.899 12.2812 149.404 12.0781C149.91 11.875 150.467 11.7734 151.076 11.7734C151.691 11.7734 152.248 11.875 152.748 12.0781C153.253 12.2812 153.688 12.5781 154.053 12.9688C154.423 13.3594 154.706 13.8281 154.904 14.375C155.102 14.9219 155.201 15.5417 155.201 16.2344ZM153.318 16.6719V16.2188C153.318 15.7448 153.269 15.3255 153.17 14.9609C153.071 14.5964 152.923 14.2891 152.725 14.0391C152.532 13.7891 152.298 13.599 152.021 13.4688C151.745 13.3385 151.43 13.2734 151.076 13.2734C150.727 13.2734 150.412 13.3385 150.131 13.4688C149.855 13.599 149.62 13.7891 149.428 14.0391C149.24 14.2891 149.094 14.5964 148.99 14.9609C148.891 15.3255 148.842 15.7448 148.842 16.2188V16.6719C148.842 17.1406 148.891 17.5599 148.99 17.9297C149.094 18.2943 149.243 18.6042 149.436 18.8594C149.633 19.1094 149.87 19.3021 150.146 19.4375C150.428 19.5677 150.743 19.6328 151.092 19.6328C151.446 19.6328 151.758 19.5677 152.029 19.4375C152.305 19.3021 152.54 19.1094 152.732 18.8594C152.925 18.6042 153.071 18.2943 153.17 17.9297C153.269 17.5599 153.318 17.1406 153.318 16.6719ZM162.451 17.9688H164.342C164.295 18.5885 164.113 19.1354 163.795 19.6094C163.482 20.0833 163.045 20.4557 162.482 20.7266C161.92 20.9922 161.24 21.125 160.443 21.125C159.824 21.125 159.266 21.0234 158.771 20.8203C158.282 20.6172 157.863 20.3281 157.514 19.9531C157.17 19.5729 156.904 19.1146 156.717 18.5781C156.535 18.0365 156.443 17.4297 156.443 16.7578V16.1484C156.443 15.4766 156.537 14.8724 156.725 14.3359C156.912 13.7943 157.183 13.3333 157.537 12.9531C157.891 12.5677 158.313 12.276 158.803 12.0781C159.298 11.875 159.852 11.7734 160.467 11.7734C161.274 11.7734 161.954 11.9115 162.506 12.1875C163.058 12.4583 163.488 12.8359 163.795 13.3203C164.102 13.8047 164.287 14.3594 164.35 14.9844H162.467C162.436 14.6458 162.35 14.349 162.209 14.0938C162.068 13.8333 161.857 13.6302 161.576 13.4844C161.295 13.3385 160.925 13.2656 160.467 13.2656C160.113 13.2656 159.803 13.3281 159.537 13.4531C159.271 13.5729 159.048 13.7552 158.865 14C158.688 14.2448 158.553 14.5469 158.459 14.9062C158.37 15.2604 158.326 15.6719 158.326 16.1406V16.7578C158.326 17.2161 158.365 17.625 158.443 17.9844C158.527 18.3385 158.654 18.638 158.826 18.8828C158.998 19.1276 159.217 19.3151 159.482 19.4453C159.753 19.5703 160.074 19.6328 160.443 19.6328C160.886 19.6328 161.248 19.5729 161.529 19.4531C161.811 19.3281 162.027 19.1406 162.178 18.8906C162.329 18.6406 162.42 18.3333 162.451 17.9688ZM170.873 18.6172C170.873 18.4453 170.842 18.2917 170.779 18.1562C170.722 18.0208 170.62 17.8984 170.475 17.7891C170.334 17.6745 170.139 17.5677 169.889 17.4688C169.644 17.3698 169.334 17.276 168.959 17.1875C168.417 17.0573 167.938 16.9115 167.521 16.75C167.11 16.5833 166.764 16.3906 166.482 16.1719C166.201 15.9531 165.988 15.6953 165.842 15.3984C165.701 15.1016 165.631 14.7552 165.631 14.3594C165.631 13.9792 165.714 13.6328 165.881 13.3203C166.048 13.0026 166.285 12.7292 166.592 12.5C166.899 12.2656 167.264 12.0859 167.686 11.9609C168.107 11.8359 168.571 11.7734 169.076 11.7734C169.811 11.7734 170.449 11.8932 170.99 12.1328C171.532 12.3724 171.951 12.7031 172.248 13.125C172.55 13.5417 172.701 14.026 172.701 14.5781H170.818C170.818 14.3177 170.751 14.0833 170.615 13.875C170.485 13.6667 170.292 13.5 170.037 13.375C169.782 13.25 169.462 13.1875 169.076 13.1875C168.706 13.1875 168.402 13.2422 168.162 13.3516C167.923 13.4557 167.743 13.5938 167.623 13.7656C167.508 13.9323 167.451 14.1146 167.451 14.3125C167.451 14.4688 167.485 14.6094 167.553 14.7344C167.626 14.8594 167.74 14.974 167.896 15.0781C168.053 15.1823 168.256 15.2812 168.506 15.375C168.756 15.4688 169.061 15.5599 169.42 15.6484C169.956 15.7734 170.43 15.9219 170.842 16.0938C171.253 16.2656 171.597 16.4688 171.873 16.7031C172.149 16.9323 172.355 17.2031 172.49 17.5156C172.631 17.8229 172.701 18.1745 172.701 18.5703C172.701 18.9714 172.618 19.3307 172.451 19.6484C172.285 19.9609 172.045 20.2266 171.732 20.4453C171.425 20.6641 171.055 20.8333 170.623 20.9531C170.191 21.0677 169.709 21.125 169.178 21.125C168.709 21.125 168.243 21.0677 167.779 20.9531C167.321 20.8385 166.907 20.6615 166.537 20.4219C166.167 20.1823 165.87 19.8776 165.646 19.5078C165.428 19.1328 165.318 18.6927 165.318 18.1875H167.209C167.209 18.4583 167.256 18.6927 167.35 18.8906C167.449 19.0833 167.587 19.2422 167.764 19.3672C167.946 19.487 168.162 19.5755 168.412 19.6328C168.662 19.6901 168.938 19.7188 169.24 19.7188C169.62 19.7188 169.93 19.6693 170.17 19.5703C170.415 19.4661 170.592 19.3307 170.701 19.1641C170.816 18.9974 170.873 18.8151 170.873 18.6172Z" fill="white"/>
</svg>
